<?xml version="1.0" encoding="UTF-8" standalone="no"?>
<svg xmlns="http://www.w3.org/2000/svg" viewBox="0 0 32 32" version="1.1" width="32px" height="32px">
<g id="surface1">
<path style="color:#000000;block-progression:tb;text-transform:none;text-indent:0" fill="#fff" d="M 6.8125 2.40625 L 5.40625 3.8125 L 7.5 5.90625 L 8.90625 4.5 Z M 25.1875 2.40625 L 23.09375 4.5 L 24.5 5.90625 L 26.59375 3.8125 Z M 16 3.03125 C 15.671875 3.035156 15.335938 3.054688 15 3.09375 C 14.988281 3.09375 14.980469 3.09375 14.96875 3.09375 C 10.914063 3.558594 7.6875 6.835938 7.125 10.875 C 6.675781 14.125 8.015625 17.070313 10.25 18.96875 C 11.207031 19.789063 11.796875 20.882813 12 22 L 12 28 L 14.28125 28 C 14.628906 28.597656 15.261719 29 16 29 C 16.738281 29 17.371094 28.597656 17.71875 28 L 20 28 L 20 24 L 20.09375 24 L 20.09375 22.8125 C 20.09375 21.347656 20.855469 19.867188 22.09375 18.71875 C 23.75 17.0625 25 14.707031 25 12 C 25 7.058594 20.933594 2.984375 16 3.03125 Z M 16 5.03125 C 19.863281 4.976563 23 8.140625 23 12 C 23 14.09375 22.03125 15.9375 20.6875 17.28125 L 20.71875 17.3125 C 19.375 18.566406 18.515625 20.207031 18.28125 22 L 13.90625 22 C 13.6875 20.285156 12.949219 18.628906 11.5625 17.4375 C 9.796875 15.933594 8.742188 13.675781 9.09375 11.125 C 9.53125 7.972656 12.085938 5.441406 15.21875 5.09375 C 15.480469 5.0625 15.742188 5.035156 16 5.03125 Z M 2 12 L 2 14 L 5 14 L 5 12 Z M 27 12 L 27 14 L 30 14 L 30 12 Z M 7.5 20.09375 L 5.40625 22.1875 L 6.8125 23.59375 L 8.90625 21.5 Z M 24.5 20.09375 L 23.09375 21.5 L 25.1875 23.59375 L 26.59375 22.1875 Z M 14 24 L 18 24 L 18 26 L 14 26 Z "/>
</g>
</svg>
