<?xml version="1.0" encoding="UTF-8" standalone="no"?>
<svg
   xmlns:dc="http://purl.org/dc/elements/1.1/"
   xmlns:cc="http://creativecommons.org/ns#"
   xmlns:rdf="http://www.w3.org/1999/02/22-rdf-syntax-ns#"
   xmlns:svg="http://www.w3.org/2000/svg"
   xmlns="http://www.w3.org/2000/svg"
   xmlns:sodipodi="http://sodipodi.sourceforge.net/DTD/sodipodi-0.dtd"
   xmlns:inkscape="http://www.inkscape.org/namespaces/inkscape"
   inkscape:export-ydpi="122.88"
   inkscape:export-xdpi="122.88"
   inkscape:export-filename="/home/Tom/Downloads/mindmap.png"
   inkscape:version="1.0beta2 (unknown)"
   sodipodi:docname="mindmap.svg"
   viewBox="0 0 400 400.00001"
   height="400"
   width="400"
   version="1.1"
   id="svg">
  <metadata
     id="metadata93">
    <rdf:RDF>
      <cc:Work
         rdf:about="">
        <dc:format>image/svg+xml</dc:format>
        <dc:type
           rdf:resource="http://purl.org/dc/dcmitype/StillImage" />
        <dc:title></dc:title>
      </cc:Work>
    </rdf:RDF>
  </metadata>
  <defs
     id="defs91" />
  <sodipodi:namedview
     inkscape:current-layer="svgg"
     inkscape:window-maximized="1"
     inkscape:window-y="0"
     inkscape:window-x="0"
     inkscape:cy="200"
     inkscape:cx="200"
     inkscape:zoom="1"
     showgrid="false"
     id="namedview89"
     inkscape:window-height="1026"
     inkscape:window-width="1920"
     inkscape:pageshadow="2"
     inkscape:pageopacity="0"
     guidetolerance="10"
     gridtolerance="10"
     objecttolerance="10"
     borderopacity="1"
     inkscape:document-rotation="0"
     bordercolor="#666666"
     pagecolor="#ffffff" />
  <g
     id="svgg">
    <path
       sodipodi:nodetypes="ccccccccccccccccccccccccsccccccccccscccccccccccccccccc"
       inkscape:connector-curvature="0"
       fill-rule="evenodd"
       fill="#f41d5c"
       stroke="none"
       d="M 188.813,15.925 C 162.23455,17.692567 134.18488,26.492959 111.874,37.512 64.561,61.6 27.712,113.005 18.895,167.223 4.973,252.822 50.101,333.633 130.324,366.76 189.876,391.352 261.327,380.555 312.071,339.297 409.346,260.204 399.71718,108.938 293.11318,42.711 254.32241,17.275165 220.951,13.329 188.813,15.925 m 63.531,81.676 c 22.563,6.539 14.945,40.914 -8.219,37.089 -3.465,-0.573 -3.72481,-0.74124 -3.72481,-0.74124 -6.40507,11.19478 -12.4747,22.42322 -18.98619,33.47024 l 2.861,2.748 c 6.632,6.369 10.291,13.984 11.428,23.783 l 0.255,2.193 c 10.56657,1.06589 19.79167,2.01976 29.204,2.951 l 1.291,-2.536 c 9.85,-19.35 40.87,-8.496 35.441,12.402 -5.011,19.292 -32.82,19.199 -36.964,-0.124 -0.485,-2.262 -0.36085,-2.54553 -0.36085,-2.54553 -4.534,-0.442 -26.76216,-2.55586 -29.46116,-2.84286 0,0 0.19576,0.22239 -0.37027,2.67639 -2.056,8.906 -10.67041,19.23154 -19.82441,23.38154 -3.295,1.494 -3.43156,1.5842 -3.43156,1.5842 1.44413,7.01891 5.10678,21.81853 6.43628,28.42226 0,0 0.038,-0.042 1.26197,-0.042 11.529,0 20.451,12.657 17.197,24.394 -4.714,16.998 -28.913,18.378 -35.722,2.037 -3.512,-8.428 0.057,-19.534 7.546,-23.487 1.427,-0.753 1.63331,-0.77534 1.63331,-0.77534 -2.03449,-9.03811 -4.14045,-19.77821 -6.49531,-28.74066 l -5.399,-0.239 c -12.347,-0.547 -24.48682,-7.15979 -29.94182,-16.90279 -0.755,-1.349 -1.68881,-3.38143 -1.93381,-3.74443 -9.76345,3.23409 -23.27931,7.73569 -34.45937,11.50822 l -0.232,2.96 c -1.924,24.59 -37.752,23.674 -37.752,-0.965 0,-18.576 23.587,-26.147 34.243,-10.991 l 0.828,1.178 c 12.65174,-4.26413 19.84162,-6.6057 35.09784,-11.606 l -0.86144,-2.75199 c -1.32286,-8.923 1.6566,-18.76201 5.8416,-24.89701 0.844,-1.238 1.047,-2.396 0.458,-2.616 -5.50871,-4.86373 -10.95251,-10.18595 -16.172,-14.992 l -2.043,0.891 c -22.01119,8.51749 -36.12491,-19.17148 -17.4825,-33.64621 16.72821,-13.45496 39.09962,8.21873 25.8545,25.01921 l -0.776,1.521 c 5.82594,5.45556 12.03461,11.32237 16.867,15.883 l 2.252,-1.561 c 10.036,-6.959 22.18957,-9.85994 35.27799,-4.65209 l 2.24771,1.22871 c 4.0268,-6.85939 14.60501,-26.88699 18.6753,-33.72062 l -1.316,-1.457 c -12.464,-13.796 1.756,-35.954 19.731,-30.744"
       id="path0" />
  </g>
</svg>
